<svg xmlns="http://www.w3.org/2000/svg" viewBox="0 0 64 64" role="img" aria-label="Growing Brighter Therapy">
  <g fill="none" stroke="#EFA9A0" stroke-width="2.6" stroke-linecap="round">
    <line x1="32" y1="26" x2="32" y2="8"/>
    <line x1="32" y1="26" x2="32" y2="8" transform="rotate(20 32 42)"/>
    <line x1="32" y1="26" x2="32" y2="8" transform="rotate(-20 32 42)"/>
    <line x1="32" y1="26" x2="32" y2="8" transform="rotate(40 32 42)"/>
    <line x1="32" y1="26" x2="32" y2="8" transform="rotate(-40 32 42)"/>
    <line x1="32" y1="26" x2="32" y2="8" transform="rotate(60 32 42)"/>
    <line x1="32" y1="26" x2="32" y2="8" transform="rotate(-60 32 42)"/>
    <line x1="6" y1="42" x2="16" y2="42"/>
    <line x1="48" y1="42" x2="58" y2="42"/>
  </g>
  <path d="M20 42 A12 12 0 0 1 44 42 Z" fill="#F7C9C2"/>
</svg>
